HIERARCHY
ROOT Hips
{
	OFFSET -3.958830 18.904000 13.208200
	CHANNELS 6 Xposition Yposition Zposition Zrotation Yrotation Xrotation 
	JOINT LHipJoint
	{
		OFFSET 0.000000 0.000000 0.000000
		CHANNELS 3 Zrotation Yrotation Xrotation
		JOINT LeftUpLeg
		{
			OFFSET 1.800000 -1.400000 0.085000
			CHANNELS 3 Zrotation Yrotation Xrotation
			JOINT LeftLeg
			{
				OFFSET 2.215000 -6.000000 0.000000
				CHANNELS 3 Zrotation Yrotation Xrotation
				JOINT LeftFoot
				{
					OFFSET 2.500000 -6.900000 0.000000
					CHANNELS 3 Zrotation Yrotation Xrotation
					JOINT LeftToeBase
					{
						OFFSET 0.200000 -0.500000 1.950000
						CHANNELS 3 Zrotation Yrotation Xrotation
						End Site
						{
							OFFSET 0.000000 0.000000 0.000000
						}
					}
				}
			}
		}
	}
	JOINT RHipJoint
	{
		OFFSET 0.000000 0.000000 0.000000
		CHANNELS 3 Zrotation Yrotation Xrotation
		JOINT RightUpLeg
		{
			OFFSET -1.800000 -1.400000 0.085000
			CHANNELS 3 Zrotation Yrotation Xrotation
			JOINT RightLeg
			{
				OFFSET -2.215000 -6.000000 0.000000
				CHANNELS 3 Zrotation Yrotation Xrotation
				JOINT RightFoot
				{
					OFFSET -2.500000 -6.900000 0.000000
					CHANNELS 3 Zrotation Yrotation Xrotation
					JOINT RightToeBase
					{
						OFFSET -0.200000 -0.500000 1.950000
						CHANNELS 3 Zrotation Yrotation Xrotation
						End Site
						{
							OFFSET 0.000000 0.000000 0.000000
						}
					}
				}
			}
		}
	}
	JOINT LowerBack
	{
		OFFSET 0.000000 0.000000 0.000000
		CHANNELS 3 Zrotation Yrotation Xrotation
		JOINT Spine
		{
			OFFSET -0.087000 1.940000 -0.288900
			CHANNELS 3 Zrotation Yrotation Xrotation
			JOINT Spine1
			{
				OFFSET 0.000000 1.950000 0.060000
				CHANNELS 3 Zrotation Yrotation Xrotation
				JOINT Neck
				{
					OFFSET 0.000000 0.000000 0.000000
					CHANNELS 3 Zrotation Yrotation Xrotation
					JOINT Neck1
					{
						OFFSET 0.000000 1.600000 0.340000
						CHANNELS 3 Zrotation Yrotation Xrotation
						JOINT Head
						{
							OFFSET 0.000000 1.667000 -0.240000
							CHANNELS 3 Zrotation Yrotation Xrotation
							End Site
							{
								OFFSET 0.000000 0.000000 0.000000
							}
						}
					}
				}
				JOINT LeftShoulder
				{
					OFFSET 0.000000 0.000000 0.000000
					CHANNELS 3 Zrotation Yrotation Xrotation
					JOINT LeftArm
					{
						OFFSET 2.700000 1.550000 -0.730000
						CHANNELS 3 Zrotation Yrotation Xrotation
						JOINT LeftForeArm
						{
							OFFSET 5.450000 0.000000 0.000000
							CHANNELS 3 Zrotation Yrotation Xrotation
							JOINT LeftHand
							{
								OFFSET 3.450000 0.000000 0.000000
								CHANNELS 3 Zrotation Yrotation Xrotation
								JOINT LeftHandIndex1
								{
									OFFSET 0.750000 0.000000 0.000000
									CHANNELS 3 Zrotation Yrotation Xrotation
									End Site
									{
										OFFSET 0.000000 0.000000 0.000000
									}
								}
							}
						}
					}
				}
				JOINT RightShoulder
				{
					OFFSET 0.000000 0.000000 0.000000
					CHANNELS 3 Zrotation Yrotation Xrotation
					JOINT RightArm
					{
						OFFSET -2.700000 1.550000 -0.730000
						CHANNELS 3 Zrotation Yrotation Xrotation
						JOINT RightForeArm
						{
							OFFSET -5.450000 0.000000 0.000000
							CHANNELS 3 Zrotation Yrotation Xrotation
							JOINT RightHand
							{
								OFFSET -3.450000 0.000000 0.000000
								CHANNELS 3 Zrotation Yrotation Xrotation
								JOINT RightHandIndex1
								{
									OFFSET -0.750000 0.000000 0.000000
									CHANNELS 3 Zrotation Yrotation Xrotation
									End Site
									{
										OFFSET 0.000000 0.000000 0.000000
									}
								}
							}
						}
					}
				}
			}
		}
	}
}
MOTION
Frames: 13
Frame Time: 0.016667
1.802300 17.227850 -5.995960 0.623802 56.347295 -1.747312 -15.541668 14.497917 3.194759 10.758071 -4.139082 -10.125992 -4.619038 6.911432 23.809619 0.222175 4.728932 2.934995 0.279840 -0.099620 0.489510 17.311044 -11.791744 2.848626 -13.866706 -1.912054 -27.349914 3.299524 -6.603575 23.786887 -0.079284 -3.324862 3.233220 -0.275470 -0.249800 0.082170 -3.528669 -2.217064 -8.153681 -0.455736 -7.536011 21.259466 1.015245 -5.891904 -21.646304 1.173283 8.755115 -14.791594 10.848791 -15.154496 54.477297 -5.694760 -12.169810 14.235580 2.767355 0.486793 5.135217 -33.465233 -13.113111 4.462668 79.155482 -32.983567 -22.929042 -3.368115 2.841768 0.362930 -0.108240 0.117660 0.010380 -5.146789 -8.635131 8.213857 56.118284 -26.610411 -17.195263 -51.949177 22.458801 -6.841727 2.724445 -1.743318 0.110150 -0.215470 -0.285360 -0.171080 
1.794370 17.217720 -6.011230 0.538401 56.178010 -2.835761 -15.531759 14.487007 3.274023 11.933492 -4.163609 -9.491045 -6.430079 7.552191 23.474522 0.278800 4.960724 2.846354 0.312690 -0.062550 0.510770 17.322192 -11.815964 2.744595 -12.820158 -1.927647 -27.622656 1.420714 -6.396518 25.832593 -0.119424 -3.391471 3.207605 -0.265120 -0.272730 0.087830 -3.598505 -2.212335 -8.175066 0.156271 -7.911621 23.103494 0.020038 -6.147885 -22.221736 1.418931 8.377154 -14.821284 9.961829 -14.619588 55.149042 -4.841200 -12.316820 12.842220 3.014350 0.504667 5.079179 -32.864256 -13.071559 4.319724 79.420872 -31.963525 -22.264783 -3.348223 2.864777 0.383560 -0.133630 0.147660 0.020950 -5.919450 -8.241718 8.368118 55.013839 -26.273323 -16.602716 -49.867029 21.888073 -5.991318 2.745583 -1.726513 0.125850 -0.218070 -0.307350 -0.169490 
1.774460 17.195540 -6.024420 0.049627 56.296774 -4.310045 -15.541982 14.487102 3.382417 13.511045 -4.392184 -9.261366 -8.228621 8.278461 23.624796 0.338892 5.291032 2.714504 0.330080 -0.036110 0.513310 17.320786 -11.777734 2.629082 -11.401871 -1.796017 -27.536809 -0.619855 -5.973694 27.566782 -0.139993 -3.439870 3.194761 -0.254160 -0.280790 0.090110 -3.527259 -2.328653 -8.165456 -0.149637 -7.999181 25.175765 0.668617 -5.990575 -22.370876 1.417211 8.093709 -14.551088 9.203697 -14.345777 54.873953 -3.812410 -12.771160 11.458190 3.242440 0.711539 4.837783 -32.639293 -13.932187 4.390657 78.879445 -31.401058 -21.771970 -3.347605 2.893515 0.383120 -0.143770 0.152860 0.020050 -6.022110 -8.147029 8.227512 52.557771 -25.845329 -15.830088 -49.038192 22.296948 -5.892294 2.744389 -1.722826 0.138620 -0.222910 -0.311800 -0.165870 
1.746590 17.181820 -6.046180 -0.960733 56.994214 -6.783746 -15.556031 14.539223 3.520446 15.413983 -4.720509 -8.807905 -9.824119 8.958623 23.908631 0.393854 5.648428 2.558314 0.373620 0.024410 0.539010 17.305546 -11.740892 2.472524 -9.914652 -1.794877 -26.403106 -2.780605 -5.400202 28.677970 -0.185030 -3.444029 3.195180 -0.226590 -0.321490 0.096100 -3.373514 -2.533626 -8.114709 -0.946627 -8.340084 28.114474 2.078944 -5.746020 -22.752649 1.453531 8.008557 -14.519490 9.173026 -14.473868 55.594855 -3.114600 -12.846390 9.048490 3.342790 0.581243 4.656017 -32.102994 -14.437657 4.260206 77.589477 -31.606490 -21.470316 -3.314271 2.903747 0.409680 -0.174740 0.191820 0.021290 -6.153737 -7.683592 8.319200 50.137430 -24.963146 -15.046031 -49.130941 23.050230 -6.167575 2.731329 -1.717633 0.157150 -0.228550 -0.331790 -0.170380 
1.709610 17.168340 -6.071210 -2.776206 57.733009 -10.226909 -15.564036 14.604934 3.683604 17.691810 -5.117870 -8.325998 -11.403924 9.712209 24.375246 0.451162 6.101074 2.371953 0.403160 0.064700 0.564080 17.307873 -11.638196 2.308913 -8.232470 -1.773509 -24.598750 -4.814456 -4.810506 29.507873 -0.226155 -3.472254 3.195287 -0.202470 -0.349770 0.101700 -3.092202 -2.874495 -8.033971 -2.055207 -8.290733 31.255370 3.906023 -5.010879 -22.255003 1.576821 8.298188 -14.825353 10.181207 -15.164121 55.726187 -3.090760 -12.633160 7.190480 3.858149 -0.538518 4.770069 -31.595902 -14.934764 3.631771 75.729667 -31.943754 -21.412932 -3.297206 2.907812 0.428280 -0.189760 0.217610 0.017540 -7.004980 -6.330262 8.725351 48.734890 -23.286939 -14.366553 -47.521819 20.602483 -5.150708 2.752204 -1.717226 0.164270 -0.227610 -0.341750 -0.180920 
1.676190 17.133500 -6.095190 -4.777481 58.255120 -13.900761 -15.551719 14.676122 3.843586 19.782480 -5.483621 -7.645270 -12.804286 10.418085 24.795639 0.497189 6.579908 2.202193 0.430840 0.084290 0.595470 17.345377 -11.467256 2.171936 -6.859901 -1.822598 -22.818894 -6.189432 -4.510666 30.683829 -0.276874 -3.609507 3.157409 -0.178440 -0.345240 0.102390 -2.732846 -3.400029 -7.964980 -3.227281 -7.805618 33.742923 6.189827 -4.359833 -20.190063 1.479248 8.470193 -14.842551 10.677197 -15.446183 55.261603 -2.405240 -12.529060 5.345420 3.983103 -1.856250 4.688230 -30.120534 -15.523822 2.403267 72.216585 -31.949676 -20.715934 -3.293874 2.902224 0.453750 -0.194050 0.223880 0.021090 -6.848783 -4.936940 8.926419 46.779610 -22.149379 -14.245545 -46.774819 19.457297 -5.058373 2.736817 -1.718030 0.147330 -0.202650 -0.348410 -0.195930 
1.671980 17.077940 -6.112790 -7.424773 58.858819 -16.493300 -15.527401 14.710826 3.915558 21.557643 -5.765052 -8.517340 -12.729784 10.726989 25.703626 0.501253 6.838370 2.116665 0.386730 0.035830 0.548030 17.395561 -11.310958 2.164002 -5.481104 -1.629215 -22.880719 -7.617449 -4.117996 31.552309 -0.255123 -3.722832 3.139852 -0.183560 -0.278240 0.098120 -2.514611 -3.766345 -7.958763 -2.645128 -7.937258 34.438723 7.192580 -3.965472 -19.017809 1.386781 8.613116 -14.615258 11.146721 -15.716099 52.526530 -2.527440 -12.669620 6.552120 5.149927 -1.764313 4.460468 -29.892862 -16.058679 1.999175 69.695192 -31.885365 -19.936929 -3.359690 2.934271 0.408280 -0.141110 0.161070 0.025130 -7.989543 -4.923524 8.804667 44.872840 -20.487149 -13.392208 -45.050960 17.353606 -4.186412 2.762362 -1.741479 0.118750 -0.190580 -0.321210 -0.185780 
1.656470 17.016270 -6.121490 -7.813232 59.484329 -17.181116 -15.530198 14.733580 3.929715 21.829119 -6.155560 -9.291630 -12.534638 11.024255 27.334577 0.510686 7.076367 2.039966 0.361790 0.004000 0.533290 17.424532 -11.215336 2.126945 -5.063020 -1.635152 -23.716788 -9.230423 -3.756705 33.263572 -0.264292 -3.972998 3.046994 -0.183310 -0.235730 0.109660 -2.263826 -4.064700 -7.889181 -4.150784 -7.137380 34.777428 9.378191 -3.600010 -17.211488 1.182753 8.982746 -14.449931 12.052581 -16.200247 49.599567 -3.301240 -12.171130 6.814720 6.623387 -1.891460 4.317525 -28.903769 -16.403827 1.321529 66.231766 -31.705283 -18.754208 -3.426609 2.984581 0.371520 -0.097570 0.119170 0.019590 -9.104719 -5.018166 8.659399 43.391748 -19.040178 -12.914144 -44.024348 16.195019 -3.854347 2.774689 -1.770187 0.103050 -0.190450 -0.300960 -0.185360 
1.644440 16.965140 -6.134340 -6.975680 59.831020 -16.835979 -15.544699 14.755713 3.863575 20.974027 -6.408497 -9.719392 -11.802797 11.065424 29.027892 0.518276 7.172972 2.018999 0.331240 -0.020030 0.500260 17.424720 -11.230424 2.103380 -5.331765 -1.748567 -24.609822 -10.300992 -3.543363 34.691719 -0.272555 -4.216727 2.964623 -0.187370 -0.196750 0.119500 -2.197252 -4.091180 -7.807490 -5.541576 -6.442094 35.548617 10.545095 -3.183855 -16.808409 0.887370 9.366351 -14.294469 13.146210 -16.703574 47.326303 -3.892330 -11.734360 7.266080 7.998387 -1.314555 4.070755 -27.160625 -16.157745 1.189203 62.749384 -34.364171 -18.497874 -3.457464 2.997115 0.337160 -0.055520 0.087100 0.019380 -10.066017 -5.780929 8.466819 42.430883 -18.291479 -12.546690 -43.941445 16.795799 -4.006835 2.761850 -1.788051 0.094370 -0.190290 -0.279840 -0.177850 
1.626320 16.925820 -6.154200 -5.092965 60.033491 -16.050709 -15.562363 14.765257 3.785740 19.382253 -6.734856 -9.743402 -11.012618 11.067708 31.079916 0.543515 7.282198 1.998322 0.314340 -0.040030 0.498150 17.413958 -11.318288 2.053257 -6.115547 -2.054984 -25.156482 -11.180792 -3.387414 36.037284 -0.293399 -4.464954 2.867487 -0.190180 -0.189250 0.121040 -2.233130 -3.970403 -7.717142 -7.193281 -5.720039 37.301557 11.175330 -2.806458 -17.115277 0.503999 9.699544 -14.314656 14.249890 -17.170039 45.627969 -4.462890 -11.119990 7.695100 9.466638 -0.725697 3.902162 -25.348320 -15.483229 1.060739 59.865147 -38.125634 -18.731412 -3.444940 3.001596 0.322140 -0.037160 0.071760 0.012370 -11.102419 -6.519732 8.371329 42.527361 -17.675799 -12.480428 -44.743853 18.237158 -4.504316 2.750251 -1.811115 0.084310 -0.199310 -0.275190 -0.184540 
1.620050 16.883460 -6.158510 -4.765620 60.140495 -17.003850 -15.550250 14.758983 3.760227 19.807511 -6.821747 -9.033252 -10.905921 11.312192 31.979041 0.576279 7.458489 1.929610 0.345310 -0.008140 0.516430 17.435645 -11.336402 1.997608 -6.852328 -2.291526 -25.336696 -11.469629 -3.468190 37.529338 -0.353157 -4.705838 2.763540 -0.175200 -0.213710 0.124760 -2.238738 -3.961589 -7.698210 -7.115141 -4.887859 38.025475 10.836548 -2.584125 -15.525743 0.120112 9.898143 -14.329627 14.468731 -17.557728 45.680153 -3.492960 -11.792620 6.816300 8.516646 -2.203248 4.052795 -22.177826 -14.825248 0.120743 59.803243 -39.790913 -19.742201 -3.369844 2.977519 0.343330 -0.061410 0.094310 0.016890 -9.294397 -5.241395 8.464385 42.822958 -19.288895 -13.721012 -49.044376 17.606998 -5.173248 2.736956 -1.865965 0.094740 -0.206790 -0.291210 -0.186910 
1.621370 16.847700 -6.160950 -4.314241 60.180906 -17.721939 -15.539076 14.768809 3.737000 20.087077 -6.740426 -8.159802 -10.908874 11.496709 32.333792 0.608934 7.551786 1.893266 0.365040 0.021430 0.531190 17.448964 -11.357800 1.965710 -7.395581 -2.484737 -25.566388 -11.976553 -3.479014 39.214898 -0.420845 -4.959585 2.669831 -0.168650 -0.241740 0.109750 -2.263671 -3.959442 -7.704716 -6.736274 -4.314318 38.693961 10.213919 -2.379698 -14.495958 -0.040102 9.785031 -14.408252 13.870430 -17.740781 46.544646 -2.727690 -12.515910 5.687070 7.495546 -3.366257 4.277633 -20.209420 -14.286635 -0.507233 61.933037 -40.807820 -21.423631 -3.304345 2.914681 0.366980 -0.094740 0.121480 0.016450 -7.827043 -4.015711 8.629139 43.188971 -21.317913 -15.165252 -53.628895 17.776584 -6.160059 2.720963 -1.892198 0.102930 -0.194350 -0.303480 -0.187160 
1.636490 16.792450 -6.159620 -4.315879 60.164576 -17.928991 -15.536447 14.616004 3.757084 20.798172 -6.826289 -8.200187 -11.615916 12.033972 32.945954 0.680477 7.761665 1.820691 0.372280 0.038310 0.522760 17.480284 -11.327760 1.999450 -7.316311 -2.446650 -26.893531 -12.821651 -3.442382 41.800922 -0.501937 -5.368194 2.532647 -0.171140 -0.243940 0.099970 -2.423970 -3.747096 -7.823644 -5.159713 -4.552007 38.156616 8.644840 -2.764685 -13.493433 -0.189898 9.422442 -14.234880 12.610850 -17.500756 46.913088 -2.088950 -13.274900 5.689600 6.586843 -3.925498 4.467682 -18.984200 -13.982593 -0.816850 65.429956 -41.150345 -23.427858 -3.271396 2.875108 0.357240 -0.106730 0.126190 0.028660 -6.489370 -3.475102 8.447892 43.740431 -22.943997 -16.559865 -58.805266 19.068132 -7.890960 2.702394 -1.935139 0.117950 -0.190900 -0.315690 -0.170310 
